# xmcd
#
# Track frame offsets: 
#        150
#        12867
#        26041
#        37051
#        49318
#        63293
#        78879
#        92658
#        105101
#        116448
#        133326
#        150810
#        165062
#        177504
#        190808
#        205093
#        223881
#        242306
#        260030
#        272833
#        286898
#
# Disc length: 4086 seconds
#
# Revision: 1
# Processed by: cddbd v1.5.2PL0 Copyright (c) Steve Scherf et al.
# Submitted via: ExactAudioCopyFreeDBPlugin 1.0
#
DISCID=170ff415
DTITLE=Various Artist - Stax of Funk:  The Funky Truth (Volumes I and
DTITLE=II)
DYEAR=2002
DGENRE=Soul
TTITLE0=Calvin Scott - Shame on the Family Name
TTITLE1=Bernie Hayes - Cool Strut
TTITLE2=Reggie Miller - Soul Machine
TTITLE3=Sir Mack Rice - Bump Meat
TTITLE4=Rudy Robinson and The Hungry Five - Got it Together (Parts 1 and
TTITLE4=2)
TTITLE5=Israel "Popper Stopper" Tolbert with The C.A. Warren Players /
TTITLE5=Big Leg Woman (With a Short Mini Skirt)
TTITLE6=The Sweet Inspirations - Dirty Tricks
TTITLE7=Katie Love - How Can You Mistreat the One You Love
TTITLE8=The Emotions - From Toys to Boys
TTITLE9=Inez Foxx - Circuits Overloaded
TTITLE10=The Staple Singers - Brand New Day
TTITLE11=The Bar-Kays - Cold Blooded
TTITLE12=Black Nasty - Talking to the People
TTITLE13=The Wrecking Crew - Bump and Boogie
TTITLE14=Sir Mack Rice - Dark Skin Woman
TTITLE15=John Kasandra - Ain't No Sin (To Have Fun)
TTITLE16=Rufus Thomas - Do the Side Saddle
TTITLE17=Jimmy McCracklin - Stay Away from That Monkey
TTITLE18=Albert King - Crosscut Saw
TTITLE19=Lee Sain - Them Hot Pants
TTITLE20=Stu Gardner - Devil in a Man
EXTD=
EXTT0=
EXTT1=
EXTT2=
EXTT3=
EXTT4=
EXTT5=
EXTT6=
EXTT7=
EXTT8=
EXTT9=
EXTT10=
EXTT11=
EXTT12=
EXTT13=
EXTT14=
EXTT15=
EXTT16=
EXTT17=
EXTT18=
EXTT19=
EXTT20=
PLAYORDER=
